<svg xmlns="http://www.w3.org/2000/svg" width="316" height="700" viewBox="0 0 316 700"><style>@import url('https://fonts.googleapis.com/css2?family=Cormorant:ital,wght@0,300;0,400;1,300&amp;family=Onest:wght@400;500;600&amp;family=IBM+Plex+Mono:wght@400;500&amp;display=swap');</style><defs></defs><rect id="background" width="316" height="700" fill="rgb(244,241,235)"/><text x="30" y="26.9" font-family="Onest" font-size="12" font-weight="600" fill="rgb(22,20,18)">9:41</text><text x="255.3" y="26.9" font-family="Onest" font-size="12" font-weight="600" fill="rgb(22,20,18)">100%</text><text x="24" y="72.5" font-family="IBM Plex Mono" font-size="9.5" font-weight="400" letter-spacing="2.09" fill="rgb(124,118,109)">КАРТА СТОСУНКІВ</text><text x="245.1" y="72.5" font-family="IBM Plex Mono" font-size="9.5" font-weight="400" letter-spacing="2.09" fill="rgb(124,118,109)">8 СФЕР</text><line id="rule" x1="24" y1="85.5" x2="292" y2="85.5" stroke="rgb(22,20,18)" stroke-opacity="0.85" stroke-width="1"/><text x="24" y="212.4" font-family="Cormorant" font-size="150" font-weight="300" letter-spacing="-9.00" fill="rgb(22,20,18)">91</text><text x="162" y="146.1" font-family="Cormorant" font-size="40" font-weight="300" font-style="italic" fill="rgb(90,30,30)">%</text><text x="24" y="247.9" font-family="Onest" font-size="12.5" font-weight="400" fill="rgb(94,88,80)">настільки однаково ви бачите ваші</text><text x="24" y="267.4" font-family="Onest" font-size="12.5" font-weight="400" fill="rgb(94,88,80)">стосунки зараз</text><line id="rule" x1="24" y1="296.3" x2="292" y2="296.3" stroke="rgb(22,20,18)" stroke-opacity="0.12" stroke-width="1"/><text x="24" y="320.6" font-family="Cormorant" font-size="15" font-weight="300" font-style="italic" fill="rgb(124,118,109)">i</text><text x="54" y="320.7" font-family="Onest" font-size="12.5" font-weight="400" fill="rgb(22,20,18)">Безпека</text><rect id="i" x="267.3" y="312.3" width="9" height="9" rx="4.5" fill="rgb(244,241,235)"/><rect id="i-border" x="267.8" y="312.8" width="8" height="8" rx="50" fill="none" stroke="rgb(22,20,18)" stroke-opacity="1" stroke-width="1"/><rect id="b" x="272.8" y="312.3" width="9" height="9" rx="4.5" fill="rgb(90,30,30)"/><rect id="b-border" x="273.3" y="312.8" width="8" height="8" rx="50" fill="none" stroke="rgb(90,30,30)" stroke-opacity="1" stroke-width="1"/><line id="rule" x1="24" y1="337.3" x2="292" y2="337.3" stroke="rgb(22,20,18)" stroke-opacity="0.12" stroke-width="1"/><text x="24" y="361.6" font-family="Cormorant" font-size="15" font-weight="300" font-style="italic" fill="rgb(124,118,109)">ii</text><text x="54" y="361.7" font-family="Onest" font-size="12.5" font-weight="400" fill="rgb(22,20,18)">Спілкування</text><rect id="i" x="223.1" y="353.3" width="9" height="9" rx="4.5" fill="rgb(244,241,235)"/><rect id="i-border" x="223.6" y="353.8" width="8" height="8" rx="50" fill="none" stroke="rgb(22,20,18)" stroke-opacity="1" stroke-width="1"/><rect id="b" x="263.6" y="353.3" width="9" height="9" rx="4.5" fill="rgb(90,30,30)"/><rect id="b-border" x="264.1" y="353.8" width="8" height="8" rx="50" fill="none" stroke="rgb(90,30,30)" stroke-opacity="1" stroke-width="1"/><line id="rule" x1="24" y1="378.3" x2="292" y2="378.3" stroke="rgb(22,20,18)" stroke-opacity="0.12" stroke-width="1"/><text x="24" y="402.6" font-family="Cormorant" font-size="15" font-weight="300" font-style="italic" fill="rgb(124,118,109)">iii</text><text x="54" y="402.7" font-family="Onest" font-size="12.5" font-weight="400" fill="rgb(22,20,18)">Спільний час</text><rect id="i" x="250.7" y="394.3" width="9" height="9" rx="4.5" fill="rgb(244,241,235)"/><rect id="i-border" x="251.2" y="394.8" width="8" height="8" rx="50" fill="none" stroke="rgb(22,20,18)" stroke-opacity="1" stroke-width="1"/><rect id="b" x="256.2" y="394.3" width="9" height="9" rx="4.5" fill="rgb(90,30,30)"/><rect id="b-border" x="256.7" y="394.8" width="8" height="8" rx="50" fill="none" stroke="rgb(90,30,30)" stroke-opacity="1" stroke-width="1"/><line id="rule" x1="24" y1="419.3" x2="292" y2="419.3" stroke="rgb(22,20,18)" stroke-opacity="0.12" stroke-width="1"/><text x="24" y="443.6" font-family="Cormorant" font-size="15" font-weight="300" font-style="italic" fill="rgb(124,118,109)">iv</text><text x="54" y="443.7" font-family="Onest" font-size="12.5" font-weight="400" fill="rgb(22,20,18)">Межі</text><rect id="i" x="236" y="435.3" width="9" height="9" rx="4.5" fill="rgb(244,241,235)"/><rect id="i-border" x="236.5" y="435.8" width="8" height="8" rx="50" fill="none" stroke="rgb(22,20,18)" stroke-opacity="1" stroke-width="1"/><rect id="b" x="248.9" y="435.3" width="9" height="9" rx="4.5" fill="rgb(90,30,30)"/><rect id="b-border" x="249.4" y="435.8" width="8" height="8" rx="50" fill="none" stroke="rgb(90,30,30)" stroke-opacity="1" stroke-width="1"/><line id="rule" x1="24" y1="673.5" x2="292" y2="673.5" stroke="rgb(22,20,18)" stroke-opacity="1" stroke-width="1"/><text x="24" y="666.1" font-family="IBM Plex Mono" font-size="11" font-weight="500" letter-spacing="2.20" fill="rgb(22,20,18)">ПОЧАТИ З «СПІЛКУВАННЯ»</text><text x="283.2" y="666.1" font-family="IBM Plex Mono" font-size="11" font-weight="500" letter-spacing="2.20" fill="rgb(22,20,18)">→</text></svg>